<svg xmlns="http://www.w3.org/2000/svg" xml:space="preserve" width="48" height="48">
   <path d="m42.055 17.693-2.428 1.596-.16 1.586ZM4.771 5.791l7.647 8.924c-.95 1.38-.514 4.076-.514 4.076l3.325-3.875zM42.373 5.318l-8.789 9.506 2.662 3.203-5.855.807-10.827-5.783-2.51 1.049-3.288-2.307.568 1.426 10.559 7.07 2.037 5.83 5.1.56 3.118-4.9 3.33-.672.334-3.414-1.91.274s.18-2.664-.746-3.346z" style="fill:#f9f9f9"/>
   <path d="m43.807 3.438-.733.023-11.17 9.498-3.527-1.463 1.398-3.719-.697-.474-2.558 2.574-.213-3.889-.805-.134-1.252 3.36-1.69-3.423-.818.209.23 3.684-2.808-2.489-.662.518 1.914 3.951-3.23 1.258L2.965 3.479 8.279 17.88l-2.322-1.377-.566.635 2.164 2.953-3.834-.563-.178.793 3.146 1.924-3.58.881.106.836 3.719.592-2.829 2.168.395.75 3.635-.88-1.572 3.096.619.573L10.104 28l-.069 3.572.805.219 1.648-3.135 9.739 15.905.9-.032-1.229-2.433c1.848-.839 4.479-.955 6.217-.004l-1.025 2.373.822.015 8.078-14.675 1.258 2.435.752-.18-.043-3.656 2.934 2.33.658-.55-1.582-3.114 3.64.9.383-.761-2.775-2.205c-.002-.029 3.695-.547 3.695-.547l.076-.865-3.586-.873 3.215-1.93-.297-.789-3.785.574 2.16-2.953-.574-.615-2.33 1.426.088-.74zm-1.434 1.88-6.217 9.303c.926.682.746 3.346.746 3.346l1.91-.274-.333 3.414-3.33.672-3.12 4.9-5.1-.56-2.036-5.83-10.559-7.07-.568-1.426 3.289 2.307 2.51-1.05 10.826 5.784 5.855-.807-2.662-3.203zm-37.602.473 10.458 9.125-3.325 3.875s-.436-2.695.514-4.076zm37.284 11.902-2.588 3.182.16-1.586Z" style="fill:#f9f9f9"/>
   <path d="m42.055 17.693-2.428 1.596-.16 1.586ZM4.771 5.791l7.647 8.924c-.95 1.38-.514 4.076-.514 4.076l3.325-3.875zM42.373 5.318s-8.798 9.518-8.789 9.506l2.662 3.203-5.855.807-10.827-5.783-2.51 1.049-3.288-2.307.568 1.426 10.559 7.07 2.037 5.83 5.1.56 3.118-4.9 3.33-.672.334-3.414-1.91.274s.18-2.664-.746-3.346z" style="fill:#0ec6a4"/>
</svg>
